<?xml version="1.0" encoding="UTF-8"?>
<svg id="Layer_1" data-name="Layer 1" xmlns="http://www.w3.org/2000/svg" viewBox="0 0 224 255">
  <defs>
    <style>
      .cls-1 {
        fill: #aeccfc;
      }

      .cls-2 {
        fill: #5779bc;
        stroke: #384e85;
        stroke-miterlimit: 10;
        stroke-width: 9px;
      }
    </style>
  </defs>
  <path d="M7.52,158.71l38.35-18.62c2.24-1.09,4.93-.15,6.01,2.08h0c1.09,2.24.15,4.93-2.08,6.01l-38.35,18.62c-2.24,1.09-4.93.15-6.01-2.08h0c-1.09-2.24-.15-4.93,2.08-6.01Z"/>
  <path d="M171.08,140.15h0c1.09-2.24,3.78-3.17,6.01-2.08l38.35,18.62c2.24,1.09,3.17,3.78,2.08,6.01h0c-1.09,2.24-3.78,3.17-6.01,2.08l-38.35-18.62c-2.24-1.09-3.17-3.78-2.08-6.01Z"/>
  <path d="M85.95,248.4h-17.12c-2.28,0-4.12-1.84-4.12-4.12h0c0-2.28,1.84-4.12,4.12-4.12h9.67c2.12,0,3.89-1.6,4.1-3.71l4.85-48.19c.23-2.26,2.25-3.91,4.51-3.69h0c2.26.23,3.91,2.25,3.69,4.51l-5.6,55.61c-.21,2.1-1.98,3.71-4.1,3.71Z"/>
  <path d="M146.29,248.4h17.12c2.28,0,4.12-1.84,4.12-4.12h0c0-2.28-1.84-4.12-4.12-4.12h-9.67c-2.12,0-3.89-1.6-4.1-3.71l-4.85-48.19c-.23-2.26-2.25-3.91-4.51-3.69h0c-2.26.23-3.91,2.25-3.69,4.51l5.6,55.61c.21,2.1,1.98,3.71,4.1,3.71Z"/>
  <path class="cls-2" d="M114.84,9.98l-50.86,56.31c-41.06,45.46-12.51,123.21,45.55,124.07l8.99.13c58.91.87,88.95-77.95,47.3-124.07L114.84,9.98h0Z"/>
  <path d="M75.36,119.06h0c.48,0,7.9-9.36,16.04-9.36s17.47,9.36,17.47,9.36c3.01,0,4.6-3.56,2.58-5.79-7.42-8.2-22.94-20.08-38.83.18-1.78,2.27-.15,5.61,2.74,5.61Z"/>
  <path d="M157.41,119.06h0c-.48,0-7.9-9.36-16.04-9.36s-17.47,9.36-17.47,9.36c-3.01,0-4.6-3.56-2.58-5.79,7.42-8.2,22.94-20.08,38.83.18,1.78,2.27.15,5.61-2.74,5.61h0Z"/>
  <path d="M105.22,126.1h24.32c8.36,0,12.29,5.88,6.06,9.05l-2.24,1.14c-8.79,4.47-23.18,4.47-31.97,0l-2.24-1.14c-6.23-3.17-2.3-9.05,6.06-9.05h.01Z"/>
  <path class="cls-1" d="M80.03,78.95c3.36-9.01,15.23-12.73,21.63-19.3,4.04-4.15-2.31-10.52-6.36-6.36-8.05,8.26-19.61,11.67-23.94,23.27-2.03,5.43,6.67,7.78,8.68,2.39h0Z"/>
</svg>