<?xml version="1.0" encoding="UTF-8"?>
<svg id="Layer_1" data-name="Layer 1" xmlns="http://www.w3.org/2000/svg" viewBox="0 0 516.72 346.77">
  <defs>
    <style>
      .cls-1 {
        fill: #399;
      }

      .cls-2 {
        fill: #347;
      }

      .cls-3 {
        fill: #876;
      }

      .cls-4 {
        fill: #aeccfc;
      }

      .cls-5 {
        fill: #fee;
      }

      .cls-6 {
        fill: #5779bc;
        stroke: #384e85;
        stroke-miterlimit: 10;
        stroke-width: 9px;
      }

      .cls-7 {
        fill: #ed6;
      }
    </style>
  </defs>
  <rect class="cls-2" x="475.33" width="38.17" height="45.7"/>
  <rect class="cls-1" x="475.33" y="63.98" width="41.4" height="51.61"/>
  <rect class="cls-7" x="475.33" y="138.17" width="41.4" height="52.15"/>
  <rect class="cls-5" x="475.33" y="211.29" width="41.4" height="54.84"/>
  <rect class="cls-3" x="475.33" y="287.63" width="41.4" height="59.14"/>
  <rect x="-2.14" y="246.08" width="51.63" height="9" rx="4.5" ry="4.5" transform="translate(-107.09 35.52) rotate(-25.9)"/>
  <rect x="184.8" y="222.77" width="9" height="51.63" rx="4.5" ry="4.5" transform="translate(-117 310.27) rotate(-64.1)"/>
  <path d="M80.95,345.54h-17.12c-2.28,0-4.12-1.84-4.12-4.12h0c0-2.28,1.84-4.12,4.12-4.12h9.67c2.12,0,3.89-1.6,4.1-3.71l4.85-48.19c.23-2.26,2.25-3.91,4.51-3.69h0c2.26.23,3.91,2.25,3.69,4.51l-5.6,55.61c-.21,2.1-1.98,3.71-4.1,3.71Z"/>
  <path d="M141.29,345.54h17.12c2.28,0,4.12-1.84,4.12-4.12h0c0-2.28-1.84-4.12-4.12-4.12h-9.67c-2.12,0-3.89-1.6-4.1-3.71l-4.85-48.19c-.23-2.26-2.25-3.91-4.51-3.69h0c-2.26.23-3.91,2.25-3.69,4.51l5.6,55.61c.21,2.1,1.98,3.71,4.1,3.71Z"/>
  <path class="cls-6" d="M109.84,107.12l-50.86,56.31c-41.06,45.46-12.51,123.21,45.55,124.07l8.99.13c58.91.87,88.95-77.95,47.3-124.07l-50.98-56.44h0Z"/>
  <path d="M70.36,216.2h0c.48,0,7.9-9.36,16.04-9.36s17.47,9.36,17.47,9.36c3.01,0,4.6-3.56,2.58-5.79-7.42-8.2-22.94-20.08-38.83.18-1.78,2.27-.15,5.61,2.74,5.61Z"/>
  <path d="M152.41,216.2h0c-.48,0-7.9-9.36-16.04-9.36s-17.47,9.36-17.47,9.36c-3.01,0-4.6-3.56-2.58-5.79,7.42-8.2,22.94-20.08,38.83.18,1.78,2.27.15,5.61-2.74,5.61Z"/>
  <path d="M100.22,223.24h24.32c8.36,0,12.29,5.88,6.06,9.05l-2.24,1.14c-8.79,4.47-23.18,4.47-31.97,0l-2.24-1.14c-6.23-3.17-2.3-9.05,6.06-9.05Z"/>
  <path class="cls-4" d="M75.03,176.09c3.36-9.01,15.23-12.73,21.63-19.3,4.04-4.15-2.31-10.52-6.36-6.36-8.05,8.26-19.61,11.67-23.94,23.27-2.03,5.43,6.67,7.78,8.68,2.39h0Z"/>
</svg>