<?xml version="1.0" encoding="UTF-8"?>
<svg id="Layer_1" xmlns="http://www.w3.org/2000/svg" version="1.1" viewBox="0 0 224 255">
  <!-- Generator: Adobe Illustrator 30.3.0, SVG Export Plug-In . SVG Version: 2.1.3 Build 182)  -->
  <defs>
    <style>
      .st0 {
        fill: #aeccfc;
      }

      .st1 {
        fill: #5779bc;
        stroke: #384e85;
        stroke-miterlimit: 10;
        stroke-width: 9px;
      }
    </style>
  </defs>
  <g>
    <path d="M-236,157.9l38.3-18.6c2.2-1.1,4.9-.1,6,2.1h0c1.1,2.2.2,4.9-2.1,6l-38.3,18.6c-2.2,1.1-4.9.1-6-2.1h0c-1.1-2.2-.2-4.9,2.1-6Z"/>
    <path d="M-72.4,139.3h0c1.1-2.2,3.8-3.2,6-2.1l38.4,18.6c2.2,1.1,3.2,3.8,2.1,6h0c-1.1,2.2-3.8,3.2-6,2.1l-38.4-18.6c-2.2-1.1-3.2-3.8-2.1-6Z"/>
    <path d="M-157.6,247.6h-17.1c-2.3,0-4.1-1.8-4.1-4.1h0c0-2.3,1.8-4.1,4.1-4.1h9.7c2.1,0,3.9-1.6,4.1-3.7l4.8-48.2c.2-2.3,2.2-3.9,4.5-3.7h0c2.3.2,3.9,2.2,3.7,4.5l-5.6,55.6c-.2,2.1-2,3.7-4.1,3.7h0Z"/>
    <path d="M-97.2,247.6h17.1c2.3,0,4.1-1.8,4.1-4.1h0c0-2.3-1.8-4.1-4.1-4.1h-9.7c-2.1,0-3.9-1.6-4.1-3.7l-4.9-48.2c-.2-2.3-2.2-3.9-4.5-3.7h0c-2.3.2-3.9,2.2-3.7,4.5l5.6,55.6c.2,2.1,2,3.7,4.1,3.7h0Z"/>
    <path class="st1" d="M-179.6,65.5c-41.1,45.5-12.5,123.2,45.6,124.1h9c58.9,1,89-77.8,47.3-123.9l-51-56.4h0l-50.9,56.2Z"/>
    <path d="M-168.1,118.3h0c.5,0,7.9-9.4,16-9.4s17.5,9.4,17.5,9.4c3,0,4.6-3.6,2.6-5.8-7.4-8.2-22.9-20.1-38.8.2-1.8,2.3-.2,5.6,2.7,5.6Z"/>
    <path d="M-86.1,118.3h0c-.5,0-7.9-9.4-16-9.4s-17.5,9.4-17.5,9.4c-3,0-4.6-3.6-2.6-5.8,7.4-8.2,22.9-20.1,38.8.2,1.8,2.3,0,5.6-2.7,5.6h0Z"/>
    <path d="M-138.3,125.3h24.3c8.4,0,12.3,5.9,6.1,9l-2.2,1.1c-8.8,4.5-23.2,4.5-32,0l-2.2-1.1c-6.2-3.2-2.3-9.1,6.1-9.1h-.1Z"/>
    <path class="st0" d="M-163.5,78.1c3.4-9,15.2-12.7,21.6-19.3,4-4.2-2.3-10.5-6.4-6.4-8.1,8.3-19.6,11.7-23.9,23.3-2,5.4,6.7,7.8,8.7,2.4h0Z"/>
  </g>
  <path d="M-480,160.4l38.3-18.6c2.2-1.1,4.9-.1,6,2.1h0c1.1,2.2.2,4.9-2.1,6l-38.3,18.6c-2.2,1.1-4.9.1-6-2.1h0c-1.1-2.2-.2-4.9,2.1-6Z"/>
  <path d="M-316.4,141.8h0c1.1-2.2,3.8-3.2,6-2.1l38.4,18.6c2.2,1.1,3.2,3.8,2.1,6h0c-1.1,2.2-3.8,3.2-6,2.1l-38.4-18.6c-2.2-1.1-3.2-3.8-2.1-6Z"/>
  <path d="M-401.5,250.1h-17.1c-2.3,0-4.1-1.8-4.1-4.1h0c0-2.3,1.8-4.1,4.1-4.1h9.7c2.1,0,3.9-1.6,4.1-3.7l4.8-48.2c.2-2.3,2.2-3.9,4.5-3.7h0c2.3.2,3.9,2.2,3.7,4.5l-5.6,55.6c-.2,2.1-2,3.7-4.1,3.7h0Z"/>
  <path d="M-341.2,250.1h17.1c2.3,0,4.1-1.8,4.1-4.1h0c0-2.3-1.8-4.1-4.1-4.1h-9.7c-2.1,0-3.9-1.6-4.1-3.7l-4.9-48.2c-.2-2.3-2.2-3.9-4.5-3.7h0c-2.3.2-3.9,2.2-3.7,4.5l5.6,55.6c.2,2.1,2,3.7,4.1,3.7h0Z"/>
  <path class="st1" d="M-372.6,11.6l-50.9,56.3c-41.1,45.5-12.5,123.2,45.6,124.1h9c58.9,1,89-77.8,47.3-123.9l-51-56.5h0Z"/>
  <path class="st0" d="M-407.4,80.6c3.4-9,15.2-12.7,21.6-19.3,4-4.2-2.3-10.5-6.4-6.4-8.1,8.3-19.6,11.7-23.9,23.3-2,5.4,6.7,7.8,8.7,2.4h0Z"/>
  <ellipse cx="-388.6" cy="110.7" rx="7" ry="13.8"/>
  <ellipse cx="-355.9" cy="110.7" rx="7" ry="13.8"/>
  <path d="M-371.9,137.2c-9,0-16.3-3.2-19.6-5s-1.4-1.9-.7-2.9h0c.6-.9,1.7-1.1,2.6-.6,4.6,2.5,18.9,8.9,34,0,.9-.5,2.1-.3,2.7.6h0c.6,1,.3,2.3-.7,2.8-6.4,3.7-12.6,5-18.2,5h0Z"/>
  <g>
    <path class="st1" d="M61,91.2c-41.1,45.5-12.5,123.2,45.6,124.1h9c58.9,1,89-77.8,47.3-123.9l-51-56.4h0l-50.9,56.2Z"/>
    <path d="M72.5,144h0c.5,0,7.9-9.4,16-9.4s17.5,9.4,17.5,9.4c3,0,4.6-3.6,2.6-5.8-7.4-8.2-22.9-20.1-38.8.2-1.8,2.3-.2,5.6,2.7,5.6Z"/>
    <path d="M154.5,144h0c-.5,0-7.9-9.4-16-9.4s-17.5,9.4-17.5,9.4c-3,0-4.6-3.6-2.6-5.8,7.4-8.2,22.9-20.1,38.8.2,1.8,2.3,0,5.6-2.7,5.6h0Z"/>
    <path d="M102.3,151h24.3c8.4,0,12.3,5.9,6.1,9l-2.2,1.1c-8.8,4.5-23.2,4.5-32,0l-2.2-1.1c-6.2-3.2-2.3-9.1,6.1-9.1h-.1Z"/>
    <path class="st0" d="M77.1,103.8c3.4-9,15.2-12.7,21.6-19.3,4-4.2-2.3-10.5-6.4-6.4-8.1,8.3-19.6,11.7-23.9,23.3-2,5.4,6.7,7.8,8.7,2.4h0Z"/>
  </g>
</svg>